<?xml version="1.0" encoding="UTF-8"?>
<!DOCTYPE svg PUBLIC "-//W3C//DTD SVG 1.1//EN" "http://www.w3.org/Graphics/SVG/1.1/DTD/svg11.dtd">
<!-- Creator: CorelDRAW 2019 -->
<svg xmlns="http://www.w3.org/2000/svg" xml:space="preserve" width="71.9459mm" height="18.9654mm" version="1.1" style="shape-rendering:geometricPrecision; text-rendering:geometricPrecision; image-rendering:optimizeQuality; fill-rule:evenodd; clip-rule:evenodd"
viewBox="0 0 85311.87 22488.76"
 xmlns:xlink="http://www.w3.org/1999/xlink"
 xmlns:xodm="http://www.corel.com/coreldraw/odm/2003">
 <defs>
  <style type="text/css">
   <![CDATA[
    .fil1 {fill:#206BC4}
    .fil2 {fill:#F76707}
    .fil0 {fill:#206BC4;fill-rule:nonzero}
   ]]>
  </style>
 </defs>
 <g id="Слой_x0020_1">
  <metadata id="CorelCorpID_0Corel-Layer"/>
  <path class="fil0" d="M33261.08 13233.05c-183.08,0 -366.17,-2.85 -543.56,-8.66 -180.24,-5.69 -346.13,-17.08 -503.48,-34.27l0 4385.24 -2059.58 0 0 -11207.74 3238.12 0c540.71,0 1015.5,22.89 1421.75,71.5 403.4,45.77 766.61,117.27 1084.16,211.66 766.61,234.67 1355.94,609.37 1770.72,1124.24 414.79,512.02 620.75,1164.32 620.75,1959.5 0,540.71 -111.58,1027 -334.75,1458.86 -223.04,434.82 -552.1,800.99 -981.11,1101.35 -429.13,303.2 -955.5,534.9 -1576.25,695.1 -620.75,163.04 -1332.93,243.2 -2136.77,243.2zm-1047.04 -1767.88c117.27,17.19 266.09,31.54 446.33,40.08 183.08,8.54 371.86,11.38 566.33,11.38 552.1,0 1015.5,-45.77 1387.36,-134.35 374.82,-88.7 675.18,-211.78 904.04,-371.98 228.74,-160.2 391.9,-351.82 491.98,-577.83 100.08,-225.89 151.54,-471.94 151.54,-740.87 0,-328.93 -74.35,-614.94 -225.89,-855.3 -151.66,-240.24 -411.94,-426.17 -786.65,-560.64 -194.59,-65.81 -434.82,-114.43 -723.8,-145.85 -286.01,-31.54 -637.83,-45.77 -1055.58,-45.77l-1155.66 0 0 3381.13zm12823.95 -429.01l-165.89 0c-609.25,0 -1144.16,91.54 -1604.71,271.66 -463.52,180.24 -818.19,454.86 -1069.93,826.72l0 5440.82 -1990.92 0 0 -8118.31 1647.64 0 183.08 1127.08 34.39 0c234.55,-414.79 557.79,-738.03 966.88,-975.42 411.82,-237.51 903.92,-357.63 1481.75,-357.63 200.28,0 371.86,11.5 517.71,34.39l0 1750.68zm6868.26 2480.05c0,-429.13 -51.46,-809.53 -151.66,-1138.47 -100.08,-329.05 -237.39,-603.56 -417.63,-826.72 -177.27,-223.16 -391.9,-391.9 -643.64,-503.48 -251.74,-111.58 -526.37,-165.89 -820.91,-165.89 -288.97,0 -557.79,54.31 -806.68,165.89 -248.89,111.58 -463.4,280.32 -640.79,503.48 -177.39,223.16 -317.55,497.67 -417.63,826.72 -100.08,328.93 -151.66,709.33 -151.66,1138.47 0,429.13 51.58,809.53 151.66,1138.47 100.08,329.05 240.24,603.68 420.48,823.88 183.08,220.32 397.59,386.21 646.49,500.64 246.05,114.43 520.68,171.58 815.22,171.58 294.67,0 566.45,-57.15 812.5,-171.58 245.93,-114.43 457.71,-280.32 634.98,-500.64 180.24,-220.2 317.55,-494.83 417.63,-823.88 100.2,-328.93 151.66,-709.33 151.66,-1138.47zm2059.58 0c0,637.95 -94.39,1218.62 -286.01,1742.15 -188.78,526.25 -460.56,975.42 -818.19,1350.13 -354.67,374.71 -783.8,663.68 -1287.28,866.8 -503.36,203.01 -1064.12,306.05 -1684.87,306.05 -637.83,0 -1209.97,-103.04 -1716.3,-306.05 -506.33,-203.12 -935.34,-492.1 -1287.28,-866.8 -351.82,-374.71 -620.75,-823.88 -809.53,-1350.13 -185.93,-523.52 -280.32,-1104.2 -280.32,-1742.15 0,-637.95 94.39,-1218.62 286.01,-1742.03 188.89,-526.37 460.56,-975.54 818.19,-1350.25 354.67,-374.71 783.8,-663.68 1287.28,-866.8 503.48,-203.01 1064.12,-306.05 1684.87,-306.05 637.83,0 1209.97,103.04 1716.3,306.05 506.33,203.12 935.46,492.1 1287.28,866.8 351.82,374.71 620.75,823.88 809.53,1350.25 185.93,523.4 280.32,1104.08 280.32,1742.03zm7609.14 3881.76c-251.74,105.89 -560.64,194.59 -923.96,271.78 -363.32,74.35 -743.72,111.58 -1147.12,111.58 -586.37,0 -1135.62,-83 -1641.95,-251.74 -509.17,-165.89 -955.38,-420.48 -1335.9,-760.91 -380.4,-343.28 -680.76,-772.3 -898.23,-1295.82 -220.2,-523.52 -328.93,-1132.77 -328.93,-1830.72 0,-780.95 125.81,-1453.17 377.55,-2011.08 251.74,-557.79 580.79,-1012.65 981.23,-1361.63 400.44,-348.97 849.61,-606.41 1350.13,-772.3 500.64,-163.04 992.61,-246.05 1479.02,-246.05 363.2,0 712.18,31.54 1046.92,97.23 337.59,62.96 640.79,151.66 915.42,263.24l0 1613.37c-246.05,-103.04 -509.17,-185.93 -783.8,-248.89 -277.47,-62.96 -574.98,-94.39 -892.54,-94.39 -320.4,0 -623.6,48.62 -915.42,145.85 -288.86,97.23 -546.29,251.74 -769.45,463.4 -223.16,214.63 -400.44,492.1 -532.06,841.07 -131.62,348.97 -197.43,769.45 -197.43,1258.58 0,357.63 51.58,695.1 151.66,1009.81 100.08,314.71 246.05,583.52 440.52,806.68 191.62,223.16 437.67,403.28 735.18,537.75 300.36,137.31 652.18,205.97 1061.27,205.97 363.32,0 692.26,-34.27 989.77,-102.93 294.67,-71.5 574.98,-157.35 838.11,-257.43l0 1607.56zm5309.2 383.36c-815.22,0 -1493.25,-137.31 -2028.15,-414.79 -537.75,-277.47 -944,-649.33 -1215.78,-1118.54 -145.85,-251.62 -254.59,-526.25 -323.24,-829.45 -71.5,-300.48 -105.77,-635.1 -105.77,-1004.12l0 -4957.38 1990.92 0 0 4742.88c0,274.63 20.04,509.17 57.27,709.33 39.96,197.43 100.08,369.01 177.27,514.98 134.47,243.08 323.24,426.17 569.29,546.29 246.05,120.24 537.75,180.24 878.19,180.24 357.63,0 663.68,-65.81 915.42,-200.16 254.59,-134.47 446.21,-337.59 574.98,-612.22 128.66,-260.28 191.62,-626.45 191.62,-1095.54l0 -4785.8 1990.92 0 0 4957.38c0,657.99 -114.43,1215.78 -343.28,1667.68 -128.66,254.59 -294.55,489.13 -500.52,698.07 -203.12,208.82 -443.36,388.94 -720.95,534.9 -274.51,148.7 -589.21,263.12 -938.19,346.13 -348.97,80.04 -738.03,120.12 -1170.01,120.12zm10581.17 -6745.18l-165.89 0c-609.25,0 -1144.16,91.54 -1604.71,271.66 -463.52,180.24 -818.19,454.86 -1069.93,826.72l0 5440.82 -1990.92 0 0 -8118.31 1647.64 0 183.08 1127.08 34.39 0c234.55,-414.79 557.79,-738.03 966.88,-975.42 411.82,-237.51 903.92,-357.63 1481.75,-357.63 200.28,0 371.86,11.5 517.71,34.39l0 1750.68zm5967.19 5675.37l-34.39 0c-111.58,117.27 -243.08,237.39 -400.44,360.36 -157.35,123.08 -337.59,240.36 -537.75,348.97 -200.28,108.74 -423.44,194.59 -669.37,260.4 -246.05,65.69 -512.14,100.08 -798.15,100.08 -386.21,0 -746.57,-60.12 -1081.31,-180.24 -337.47,-120.12 -623.6,-294.67 -863.84,-520.56 -240.36,-226.01 -429.13,-497.79 -566.45,-821.03 -137.31,-320.4 -205.97,-680.87 -205.97,-1075.62 0,-437.67 80.16,-826.61 237.51,-1175.7 160.08,-346.13 383.24,-637.83 666.41,-878.19 286.13,-240.24 626.57,-423.32 1024.16,-549.25 394.75,-125.81 835.26,-188.78 1315.86,-188.78 351.82,0 675.06,22.89 972.58,65.81 294.67,45.77 554.94,100.2 778.11,160.2l0 -326.09c0,-188.78 -31.54,-371.86 -97.23,-546.41 -62.96,-177.27 -166.01,-331.78 -309.01,-469.09 -143,-137.31 -328.93,-243.2 -557.79,-326.09 -228.86,-80.16 -509.17,-120.12 -838.11,-120.12 -400.56,0 -803.84,42.81 -1207.24,131.5 -400.44,88.7 -838.11,223.16 -1307.2,400.56l0 -1550.52c408.97,-177.27 840.95,-314.59 1298.66,-408.97 460.56,-97.23 938.31,-145.97 1441.67,-151.66 592.18,0 1112.85,71.5 1556.22,217.47 443.36,145.85 818.07,346.13 1115.58,600.72 300.36,254.59 526.37,554.94 675.18,901.07 145.85,346.13 220.2,723.68 220.2,1129.93l0 3060.73c0,537.87 5.69,998.43 17.19,1384.51 11.38,383.36 22.89,726.64 34.27,1029.85l-1793.49 0 -85.85 -863.84zm-163.04 -2597.45c-188.78,-45.77 -406.25,-85.85 -652.3,-122.97 -245.93,-37.23 -494.83,-54.43 -743.72,-54.43 -486.29,0 -869.53,97.23 -1149.97,288.97 -283.16,194.47 -423.32,489.13 -423.32,886.72 0,183.08 31.42,343.28 97.23,480.6 62.96,137.31 148.82,251.74 257.43,340.44 108.74,88.7 237.51,157.35 380.52,203.12 145.85,42.81 300.36,65.69 460.56,65.69 200.28,0 391.9,-25.73 569.29,-80.04 177.27,-51.46 343.16,-120.12 491.98,-200.28 151.54,-80.04 286.01,-171.58 406.13,-271.66 120.24,-103.04 223.16,-200.28 306.17,-294.67l0 -1241.51z"/>
  <g id="_521941288">
   <path class="fil1" d="M9230.81 6808.03l22.89 8741.44c10.08,582.93 58.81,596.45 317.2,988.82 872.61,117.27 2004.56,-737.2 2757.53,-1169.41l6141.5 -3573.22c377.67,-217.83 1030.68,-436.84 1022.85,-966.65 -9.25,-629.89 -1725.66,-1354.04 -2229.74,-1679.3l-4906.39 -2910.61c-788.31,-445.02 -2070.84,-1356.29 -2741.16,-1366.61 -559.09,599.65 -388.82,622.18 -384.67,1935.55z"/>
   <path class="fil1" d="M7615.42 15542.47c0,-1941.71 86.56,-9388.75 -103.99,-10189.51 -804.31,-253.28 -886.61,61.07 -2148.04,1057.36l-4713.11 3721.56c-1571.16,1192.89 60,1916.45 1163.25,2637.41l3938.68 2776.86c545.93,390.71 1863.21,1587.4 1863.21,-3.68z"/>
   <path class="fil1" d="M10930.15 18522.68c955.26,698.3 2516.46,1271.75 3620.3,1781.99 1234.16,570.48 3120.61,1785.31 3778.96,981.35 269.53,-329.17 1000.2,-3504.33 1165.98,-4189.95 190.08,-785.46 1168.23,-3569.55 938.78,-4183.07 -576.17,-229.69 -848.42,107.67 -1357.83,385.62 -1981.67,1081.31 -5606.48,3355.51 -7256.72,4178.44 -614.83,306.52 -857.44,299.53 -889.45,1045.62z"/>
   <path class="fil2" d="M11065.21 2965.16c-63.08,963.21 421.66,835.02 2092.31,1864.64l4898.69 2919.39c401.98,234.31 775.74,462.33 1211.98,699.25 506.68,275.22 831.59,658.34 1359.85,471.23 266.09,-571.19 -705.18,-3137.09 -942.1,-3875.72l-576.17 -1960.92c-1066.01,-3431.76 -881.39,-2604.8 -4334.73,-1533.33 -725.46,225.06 -3249.74,1088.78 -3709.83,1415.46z"/>
   <path class="fil1" d="M269.29 13260.91c324.78,1014.43 3266.46,5809.01 3886.03,6898.74 229.8,404.35 375.54,843.33 908.19,895.62 586.84,57.63 753.92,-425.1 1010.05,-785.22 537.87,-755.93 1286.33,-1432.78 387.51,-2326.26l-5459.68 -4368.64c-326.8,-266.68 -277.95,-262.06 -732.1,-314.23z"/>
   <path class="fil1" d="M231.11 9127.88c624.31,-119.65 3382.79,-2975.24 3848.92,-3395.59 619.21,-558.38 1166.57,-1089.37 1891.2,-1728.39 1057.6,-932.61 1027.48,-1369.93 221.62,-2249.18 -1068.98,-1166.57 -1403.37,-591.7 -2012.86,458.66 -540.12,930.72 -3928.36,6347.59 -3948.88,6914.51z"/>
   <path class="fil1" d="M16259.74 22369.35c-149.65,-289.92 -3641.52,-1471.08 -4220.07,-1675.5 -810.72,-286.6 -1468.35,-586.6 -2179.1,-825.42 -949.45,-318.97 -1513.76,89.05 -1977.28,713.96 -304.03,409.8 -1297.36,1501.43 -257.08,1794.44 284.23,80.04 8292.98,209.29 8633.53,-7.47z"/>
   <path class="fil1" d="M15580.06 81.46c-1382.14,-134.82 -5706.44,-62.37 -7212.38,-59.05 -1433.49,3.79 -962.26,723.44 -261.46,1320.13 759.02,646.25 1481.04,390.95 2459.54,155.81l3810.97 -1014.43c877.83,-230.04 1076.45,-127.47 1203.33,-402.45z"/>
   <path class="fil1" d="M19531.43 20541c470.64,-257.55 2486.1,-4589.44 2900.77,-5393.04l1136.57 -2164.28c1041.59,-2076.89 -1050.6,-1673.01 -1644.91,43.64l-2392.43 7513.68z"/>
   <path class="fil1" d="M19548.03 2024.12l1689.85 4471.33c234.31,626.21 977.08,2797.01 1367.2,3243.58 228.86,261.94 859.33,613.05 1150.44,310.79 279.84,-290.52 -1605.54,-3491.17 -1942.66,-4128.76l-1607.09 -3025.39c-174.07,-361.66 -274.27,-795.42 -657.75,-871.55z"/>
  </g>
 </g>
</svg>
